# xmcd CD database file
#
# Track frame offsets:
#	150
#	21902
#	35480
#	49307
#	64820
#	78735
#	88315
#	99472
#	112320
#	122937
#
# Disc length: 1786 seconds
#
# Revision: 0
# Processed by: cddbd v1.5.2PL0 Copyright (c) Steve Scherf et al.
# Submitted via: CDex 1.70beta2
#
DISCID=9306f80a
DTITLE=Sergio Augusto Sarapo - SaBad'o - Lembranças de Santa Barbara d'Oeste
DYEAR=2000
DGENRE=Jazz
TTITLE0=Minha Santa Barbara
TTITLE1=Causos e Coisas
TTITLE2=Namoro so na Quinta Feira
TTITLE3=Bill
TTITLE4=Amigo
TTITLE5=Bailes
TTITLE6=Barbara
TTITLE7=Pharmacia
TTITLE8=Lingua do P
TTITLE9=Auto Falante 9 de Julho
EXTD=YEAR: 2000
EXTT0=
EXTT1=
EXTT2=
EXTT3=
EXTT4=
EXTT5=
EXTT6=
EXTT7=
EXTT8=
EXTT9=
PLAYORDER=
